#N canvas 79 120 562 484 12;
#X obj 85 248 line~;
#X obj 88 124 delay \$1;
#X obj 85 177 pack 1 \$1;
#X obj 84 307 outlet~;
#X obj 139 61 route pos;
#X obj 88 98 t b b f;
#X obj 207 307 outlet;
#X msg 186 268 pos \$1;
#X obj 186 241 f;
#X obj 139 31 inlet;
#X obj 18 35 loadbang;
#X obj 17 69 1;
#X obj 120 151 pack 0 \$1;
#X connect 0 0 3 0;
#X connect 1 0 2 0;
#X connect 1 0 8 0;
#X connect 2 0 0 0;
#X connect 4 0 5 0;
#X connect 4 1 6 0;
#X connect 5 0 1 0;
#X connect 5 1 12 0;
#X connect 5 2 8 1;
#X connect 7 0 6 0;
#X connect 8 0 7 0;
#X connect 9 0 4 0;
#X connect 10 0 11 0;
#X connect 11 0 0 0;
#X connect 12 0 0 0;
