#N canvas 134 12 857 610 12;
#X obj 14 15 bng 15 250 50 0 empty empty empty 20 8 0 8 -258699 -1
-1;
#X msg 13 35 stop;
#X floatatom 165 248 5 0 0;
#X floatatom 219 248 5 0 0;
#X floatatom 190 170 5 0 0;
#X floatatom 239 171 5 0 0;
#N canvas 0 0 450 300 graph7 0;
#X array buf 10000 float 0;
#X coords 0 1 9999 -1 200 140 1;
#X restore 52 431 graph;
#X obj 91 212 xrecord~ buf;
#X msg 11 69 reset;
#X obj 70 287 snapshot~;
#X floatatom 72 312 7 0 0;
#X obj 18 220 loadbang;
#X msg 10 99 help;
#X obj 175 96 tgl 15 1 empty empty empty 20 8 0 8 -225271 -1 -1 1 1
;
#X msg 193 93 loop \$1;
#X msg 173 36 0;
#X msg 209 36 200;
#X msg 172 64 draw \$1;
#X obj 411 275 bng 15 250 50 0 empty empty empty 20 8 0 8 -258699 -1
-1;
#X msg 410 295 stop;
#X floatatom 565 485 5 0 0;
#X floatatom 619 485 5 0 0;
#X floatatom 568 427 5 0 0;
#X floatatom 617 428 5 0 0;
#X obj 500 458 xrecord~ buf;
#X msg 409 334 reset;
#X obj 500 518 snapshot~;
#X floatatom 500 548 7 0 0;
#X obj 411 446 loadbang;
#X obj 537 242 tgl 15 1 empty empty empty 20 8 0 8 -225271 -1 -1 0
1;
#X msg 556 239 loop \$1;
#X msg 452 206 0;
#X msg 451 234 draw \$1;
#X obj 538 265 tgl 15 1 empty empty empty 20 8 0 8 -225271 -1 -1 1
1;
#X msg 556 263 sigmode \$1;
#X msg 409 360 print;
#X obj 581 353 hsl 128 15 -0.001 1 0 1 empty empty empty 20 8 0 8 -225271
-1 -1 12700 1;
#X obj 537 291 tgl 15 0 empty empty empty 20 8 0 8 -225271 -1 -1 0
1;
#X msg 557 288 mixmode \$1;
#X floatatom 629 381 8 0 0;
#X obj 411 473 metro 30;
#X obj 18 247 metro 30;
#X obj 640 21 osc~ 10;
#X obj 86 78 r~ rec;
#X obj 482 339 r~ rec;
#X obj 678 95 s~ rec;
#X obj 623 48 *~ 1;
#X obj 622 25 tgl 15 1 empty empty empty 20 8 0 8 -225271 -1 -1 1 1
;
#X obj 719 50 *~ 1;
#X obj 718 27 tgl 15 0 empty empty empty 20 8 0 8 -225271 -1 -1 0 1
;
#X obj 736 23 adc~;
#X text 198 149 min/max position;
#X text 166 267 min/max position;
#X text 262 96 looping on/off;
#X text 237 65 display refresh;
#X text 52 13 start;
#X text 53 35 stop;
#X text 26 270 position signal;
#X text 619 238 looping on/off;
#X text 644 264 signal mode on/off;
#X text 700 381 trigger signal;
#X text 379 121 <----- message triggered;
#X text 173 368 signal triggered ------->;
#X text 493 185 click to activate auto update;
#X text 432 271 start;
#X text 450 295 stop;
#X text 538 307 mix-in by trigger signal on/off;
#X msg 153 170 all;
#X msg 488 206 100;
#X obj 521 426 line~;
#X msg 520 401 \$1 20;
#X msg 9 135 getattributes;
#X obj 208 211 print A;
#X msg 10 163 getbuffer;
#X connect 0 0 7 0;
#X connect 1 0 7 0;
#X connect 4 0 7 2;
#X connect 5 0 7 3;
#X connect 7 0 9 0;
#X connect 7 1 2 0;
#X connect 7 2 3 0;
#X connect 7 4 72 0;
#X connect 8 0 7 0;
#X connect 9 0 10 0;
#X connect 11 0 41 0;
#X connect 12 0 7 0;
#X connect 13 0 14 0;
#X connect 14 0 7 0;
#X connect 15 0 17 0;
#X connect 16 0 17 0;
#X connect 17 0 7 0;
#X connect 18 0 24 0;
#X connect 19 0 24 0;
#X connect 22 0 24 2;
#X connect 23 0 24 3;
#X connect 24 0 26 0;
#X connect 24 1 20 0;
#X connect 24 2 21 0;
#X connect 25 0 24 0;
#X connect 26 0 27 0;
#X connect 28 0 40 0;
#X connect 29 0 30 0;
#X connect 30 0 24 0;
#X connect 31 0 32 0;
#X connect 32 0 24 0;
#X connect 33 0 34 0;
#X connect 34 0 24 0;
#X connect 35 0 24 0;
#X connect 36 0 39 0;
#X connect 36 0 70 0;
#X connect 37 0 38 0;
#X connect 38 0 24 0;
#X connect 40 0 26 0;
#X connect 41 0 9 0;
#X connect 42 0 46 0;
#X connect 43 0 7 0;
#X connect 44 0 24 0;
#X connect 46 0 45 0;
#X connect 47 0 46 1;
#X connect 48 0 45 0;
#X connect 49 0 48 1;
#X connect 50 0 48 0;
#X connect 50 1 48 0;
#X connect 67 0 7 0;
#X connect 68 0 32 0;
#X connect 69 0 24 1;
#X connect 70 0 69 0;
#X connect 71 0 7 0;
#X connect 73 0 7 0;
