#N canvas 221 26 723 600 12;
#X obj 14 15 bng 15 250 50 0 empty empty empty 20 8 0 8 -262144 -1
-1;
#X msg 13 35 stop;
#X floatatom 165 248 5 0 0;
#X floatatom 219 248 5 0 0;
#X floatatom 190 170 5 0 0;
#X floatatom 239 171 5 0 0;
#X graph graph7 0 -1 9999 1 487 163 687 23;
#X array buf 10000 float 0;
#X pop;
#X obj 91 212 xrecord~ buf;
#X msg 11 69 reset;
#X obj 90 284 snapshot~;
#X floatatom 90 315 7 0 0;
#X obj 18 220 loadbang;
#X msg 101 4 refresh;
#X msg 60 4 help;
#X obj 127 94 tgl 15 1 empty empty empty 20 8 0 8 -262144 -1 -1 1 1
;
#X msg 122 114 loop \$1;
#X msg 122 33 0;
#X msg 158 33 200;
#X msg 121 61 draw \$1;
#X obj 396 212 bng 15 250 50 0 empty empty empty 20 8 0 8 -262144 -1
-1;
#X msg 395 232 stop;
#X floatatom 518 440 5 0 0;
#X floatatom 572 440 5 0 0;
#X floatatom 541 378 5 0 0;
#X floatatom 590 379 5 0 0;
#X obj 473 409 xrecord~ buf;
#X msg 393 266 reset;
#X obj 473 469 snapshot~;
#X floatatom 473 499 7 0 0;
#X obj 384 397 loadbang;
#X obj 535 196 tgl 15 1 empty empty empty 20 8 0 8 -262144 -1 -1 1
1;
#X msg 530 216 loop \$1;
#X msg 451 202 0;
#X msg 487 202 200;
#X msg 450 230 draw \$1;
#X obj 609 195 tgl 15 1 empty empty empty 20 8 0 8 -262144 -1 -1 1
1;
#X msg 604 215 sigmode \$1;
#X msg 382 311 print;
#X obj 528 309 hsl 128 15 -0.001 1 0 0 empty empty empty 20 8 0 8 -262144
-1 -1 5700 1;
#X obj 609 243 tgl 15 0 empty empty empty 20 8 0 8 -262144 -1 -1 0
1;
#X msg 604 263 mixmode \$1;
#X floatatom 576 327 5 0 0;
#X obj 523 327 sig~ 1;
#X obj 384 424 metro 30;
#X obj 18 247 metro 30;
#X obj 247 18 osc~ 10;
#X obj 115 168 r~ rec;
#X obj 459 328 r~ rec;
#X obj 295 100 s~ rec;
#X obj 230 45 *~ 1;
#X obj 229 22 tgl 15 1 empty empty empty 20 8 0 8 -262144 -1 -1 1 1
;
#X obj 326 47 *~ 1;
#X obj 325 24 tgl 15 0 empty empty empty 20 8 0 8 -262144 -1 -1 0 1
;
#X obj 343 20 adc~;
#X connect 0 0 7 0;
#X connect 1 0 7 0;
#X connect 4 0 7 2;
#X connect 5 0 7 3;
#X connect 7 0 9 0;
#X connect 7 1 2 0;
#X connect 7 2 3 0;
#X connect 8 0 7 0;
#X connect 9 0 10 0;
#X connect 11 0 44 0;
#X connect 12 0 7 0;
#X connect 13 0 7 0;
#X connect 14 0 15 0;
#X connect 15 0 7 0;
#X connect 16 0 18 0;
#X connect 17 0 18 0;
#X connect 18 0 7 0;
#X connect 19 0 25 0;
#X connect 20 0 25 0;
#X connect 23 0 25 2;
#X connect 24 0 25 3;
#X connect 25 0 27 0;
#X connect 25 1 21 0;
#X connect 25 2 22 0;
#X connect 26 0 25 0;
#X connect 27 0 28 0;
#X connect 29 0 43 0;
#X connect 30 0 31 0;
#X connect 31 0 25 0;
#X connect 32 0 34 0;
#X connect 33 0 34 0;
#X connect 34 0 25 0;
#X connect 35 0 36 0;
#X connect 36 0 25 0;
#X connect 37 0 25 0;
#X connect 38 0 41 0;
#X connect 38 0 42 0;
#X connect 39 0 40 0;
#X connect 40 0 25 0;
#X connect 42 0 25 1;
#X connect 43 0 27 0;
#X connect 44 0 9 0;
#X connect 45 0 49 0;
#X connect 46 0 7 0;
#X connect 47 0 25 0;
#X connect 49 0 48 0;
#X connect 50 0 49 1;
#X connect 51 0 48 0;
#X connect 52 0 51 1;
#X connect 53 0 51 0;
#X connect 53 1 51 0;
